TITLE ""
FILE "1Q_j_2170-2183.mp3" MP3
  TRACK 01 AUDIO
    TITLE "1Q_j_2170-2183_01"
    INDEX 01 00:00:00
  TRACK 02 AUDIO
    TITLE "1Q_j_2170-2183_02"
    INDEX 01 00:02:11
  TRACK 03 AUDIO
    TITLE "1Q_j_2170-2183_03"
    INDEX 01 00:02:19
  TRACK 04 AUDIO
    TITLE "1Q_j_2170-2183_04"
    INDEX 01 00:04:18
  TRACK 05 AUDIO
    TITLE "1Q_j_2170-2183_05"
    INDEX 01 00:04:26
  TRACK 06 AUDIO
    TITLE "1Q_j_2170-2183_06"
    INDEX 01 00:11:04
  TRACK 07 AUDIO
    TITLE "1Q_j_2170-2183_07"
    INDEX 01 00:11:49
  TRACK 08 AUDIO
    TITLE "1Q_j_2170-2183_08"
    INDEX 01 00:12:74
  TRACK 09 AUDIO
    TITLE "1Q_j_2170-2183_09"
    INDEX 01 00:13:09
  TRACK 10 AUDIO
    TITLE "1Q_j_2170-2183_10"
    INDEX 01 00:14:50
  TRACK 11 AUDIO
    TITLE "1Q_j_2170-2183_11"
    INDEX 01 00:14:57
  TRACK 12 AUDIO
    TITLE "1Q_j_2170-2183_12"
    INDEX 01 00:20:72
  TRACK 13 AUDIO
    TITLE "1Q_j_2170-2183_13"
    INDEX 01 00:21:42
  TRACK 14 AUDIO
    TITLE "1Q_j_2170-2183_14"
    INDEX 01 00:22:63
  TRACK 15 AUDIO
    TITLE "1Q_j_2170-2183_15"
    INDEX 01 00:22:71
  TRACK 16 AUDIO
    TITLE "1Q_j_2170-2183_16"
    INDEX 01 00:24:64
  TRACK 17 AUDIO
    TITLE "1Q_j_2170-2183_17"
    INDEX 01 00:24:72
  TRACK 18 AUDIO
    TITLE "1Q_j_2170-2183_18"
    INDEX 01 00:31:30
  TRACK 19 AUDIO
    TITLE "1Q_j_2170-2183_19"
    INDEX 01 00:32:02
  TRACK 20 AUDIO
    TITLE "1Q_j_2170-2183_20"
    INDEX 01 00:33:10
  TRACK 21 AUDIO
    TITLE "1Q_j_2170-2183_21"
    INDEX 01 00:33:22
  TRACK 22 AUDIO
    TITLE "1Q_j_2170-2183_22"
    INDEX 01 00:36:53
  TRACK 23 AUDIO
    TITLE "1Q_j_2170-2183_23"
    INDEX 01 00:36:61
  TRACK 24 AUDIO
    TITLE "1Q_j_2170-2183_24"
    INDEX 01 00:43:14
  TRACK 25 AUDIO
    TITLE "1Q_j_2170-2183_25"
    INDEX 01 00:43:61
  TRACK 26 AUDIO
    TITLE "1Q_j_2170-2183_26"
    INDEX 01 00:44:70
  TRACK 27 AUDIO
    TITLE "1Q_j_2170-2183_27"
    INDEX 01 00:45:05
  TRACK 28 AUDIO
    TITLE "1Q_j_2170-2183_28"
    INDEX 01 00:47:57
  TRACK 29 AUDIO
    TITLE "1Q_j_2170-2183_29"
    INDEX 01 00:47:65
  TRACK 30 AUDIO
    TITLE "1Q_j_2170-2183_30"
    INDEX 01 00:54:65
  TRACK 31 AUDIO
    TITLE "1Q_j_2170-2183_31"
    INDEX 01 00:55:37
  TRACK 32 AUDIO
    TITLE "1Q_j_2170-2183_32"
    INDEX 01 00:56:66
  TRACK 33 AUDIO
    TITLE "1Q_j_2170-2183_33"
    INDEX 01 00:56:75
  TRACK 34 AUDIO
    TITLE "1Q_j_2170-2183_34"
    INDEX 01 01:01:24
  TRACK 35 AUDIO
    TITLE "1Q_j_2170-2183_35"
    INDEX 01 01:01:33
  TRACK 36 AUDIO
    TITLE "1Q_j_2170-2183_36"
    INDEX 01 01:07:75
  TRACK 37 AUDIO
    TITLE "1Q_j_2170-2183_37"
    INDEX 01 01:08:45
  TRACK 38 AUDIO
    TITLE "1Q_j_2170-2183_38"
    INDEX 01 01:09:72
  TRACK 39 AUDIO
    TITLE "1Q_j_2170-2183_39"
    INDEX 01 01:10:07
  TRACK 40 AUDIO
    TITLE "1Q_j_2170-2183_40"
    INDEX 01 01:14:01
  TRACK 41 AUDIO
    TITLE "1Q_j_2170-2183_41"
    INDEX 01 01:14:09
  TRACK 42 AUDIO
    TITLE "1Q_j_2170-2183_42"
    INDEX 01 01:20:07
  TRACK 43 AUDIO
    TITLE "1Q_j_2170-2183_43"
    INDEX 01 01:20:54
  TRACK 44 AUDIO
    TITLE "1Q_j_2170-2183_44"
    INDEX 01 01:22:12
  TRACK 45 AUDIO
    TITLE "1Q_j_2170-2183_45"
    INDEX 01 01:22:20
  TRACK 46 AUDIO
    TITLE "1Q_j_2170-2183_46"
    INDEX 01 01:24:37
  TRACK 47 AUDIO
    TITLE "1Q_j_2170-2183_47"
    INDEX 01 01:24:42
  TRACK 48 AUDIO
    TITLE "1Q_j_2170-2183_48"
    INDEX 01 01:30:12
  TRACK 49 AUDIO
    TITLE "1Q_j_2170-2183_49"
    INDEX 01 01:30:59
  TRACK 50 AUDIO
    TITLE "1Q_j_2170-2183_50"
    INDEX 01 01:31:72
  TRACK 51 AUDIO
    TITLE "1Q_j_2170-2183_51"
    INDEX 01 01:32:03
  TRACK 52 AUDIO
    TITLE "1Q_j_2170-2183_52"
    INDEX 01 01:33:75
  TRACK 53 AUDIO
    TITLE "1Q_j_2170-2183_53"
    INDEX 01 01:34:07
  TRACK 54 AUDIO
    TITLE "1Q_j_2170-2183_54"
    INDEX 01 01:38:33
  TRACK 55 AUDIO
    TITLE "1Q_j_2170-2183_55"
    INDEX 01 01:39:05
  TRACK 56 AUDIO
    TITLE "1Q_j_2170-2183_56"
    INDEX 01 01:40:18
  TRACK 57 AUDIO
    TITLE "1Q_j_2170-2183_57"
    INDEX 01 01:40:30
  TRACK 58 AUDIO
    TITLE "1Q_j_2170-2183_58"
    INDEX 01 01:45:13
  TRACK 59 AUDIO
    TITLE "1Q_j_2170-2183_59"
    INDEX 01 01:45:21
  TRACK 60 AUDIO
    TITLE "1Q_j_2170-2183_60"
    INDEX 01 01:49:56
  TRACK 61 AUDIO
    TITLE "1Q_j_2170-2183_61"
    INDEX 01 01:50:28
  TRACK 62 AUDIO
    TITLE "1Q_j_2170-2183_62"
    INDEX 01 01:52:49
  TRACK 63 AUDIO
    TITLE "1Q_j_2170-2183_63"
    INDEX 01 01:52:58
  TRACK 64 AUDIO
    TITLE "1Q_j_2170-2183_64"
    INDEX 01 01:55:45
  TRACK 65 AUDIO
    TITLE "1Q_j_2170-2183_65"
    INDEX 01 01:55:53
  TRACK 66 AUDIO
    TITLE "1Q_j_2170-2183_66"
    INDEX 01 02:02:55
  TRACK 67 AUDIO
    TITLE "1Q_j_2170-2183_67"
    INDEX 01 02:03:25
  TRACK 68 AUDIO
    TITLE "1Q_j_2170-2183_68"
    INDEX 01 02:04:54
  TRACK 69 AUDIO
    TITLE "1Q_j_2170-2183_69"
    INDEX 01 02:04:61
  TRACK 70 AUDIO
    TITLE "1Q_j_2170-2183_70"
    INDEX 01 02:07:01
  TRACK 71 AUDIO
    TITLE "1Q_j_2170-2183_71"
    INDEX 01 02:07:09
  TRACK 72 AUDIO
    TITLE "1Q_j_2170-2183_72"
    INDEX 01 02:12:59
  TRACK 73 AUDIO
    TITLE "1Q_j_2170-2183_73"
    INDEX 01 02:13:31
  TRACK 74 AUDIO
    TITLE "1Q_j_2170-2183_74"
    INDEX 01 02:14:68
  TRACK 75 AUDIO
    TITLE "1Q_j_2170-2183_75"
    INDEX 01 02:15:01
  TRACK 76 AUDIO
    TITLE "1Q_j_2170-2183_76"
    INDEX 01 02:17:62
  TRACK 77 AUDIO
    TITLE "1Q_j_2170-2183_77"
    INDEX 01 02:17:70
  TRACK 78 AUDIO
    TITLE "1Q_j_2170-2183_78"
    INDEX 01 02:21:62
  TRACK 79 AUDIO
    TITLE "1Q_j_2170-2183_79"
    INDEX 01 02:22:34
  TRACK 80 AUDIO
    TITLE "1Q_j_2170-2183_80"
    INDEX 01 02:23:63
  TRACK 81 AUDIO
    TITLE "1Q_j_2170-2183_81"
    INDEX 01 02:23:71
  TRACK 82 AUDIO
    TITLE "1Q_j_2170-2183_82"
    INDEX 01 02:25:48
  TRACK 83 AUDIO
    TITLE "1Q_j_2170-2183_83"
    INDEX 01 02:25:54
  TRACK 84 AUDIO
    TITLE "1Q_j_2170-2183_84"
    INDEX 01 02:30:28
